<svg width="1080" height="909" viewBox="0 0 1080 909" fill="none" xmlns="http://www.w3.org/2000/svg">
<g filter="url(#filter0_i)">
<path fill-rule="evenodd" clip-rule="evenodd" d="M855.5 -115C964.875 -111.555 1126.76 -100.22 1206.5 -36C1279.22 22.5682 1217.04 110.443 1247 192C1276.67 272.766 1281.97 398.357 1258 480.5C1232.98 566.227 1262.73 659.056 1234 751C1206.5 839 1257.19 896.995 1138.81 906.848C1016.67 917.013 802 867 716.399 778.984C638.117 698.494 604.369 458.142 523.795 381.758C441.67 303.903 116.551 239.697 33.4448 126.601C-33.5 35.5 8.9376 -110.356 96.5001 -167C185.404 -224.511 744.167 -118.507 855.5 -115Z" fill="url(#paint0_linear)"/>
</g>
<defs>
<filter id="filter0_i" x="0.569336" y="-184.065" width="1272.51" height="1096.21" filterUnits="userSpaceOnUse" color-interpolation-filters="sRGB">
<feFlood flood-opacity="0" result="BackgroundImageFix"/>
<feBlend mode="normal" in="SourceGraphic" in2="BackgroundImageFix" result="shape"/>
<feColorMatrix in="SourceAlpha" type="matrix" values="0 0 0 0 0 0 0 0 0 0 0 0 0 0 0 0 0 0 127 0" result="hardAlpha"/>
<feOffset dy="4"/>
<feGaussianBlur stdDeviation="15"/>
<feComposite in2="hardAlpha" operator="arithmetic" k2="-1" k3="1"/>
<feColorMatrix type="matrix" values="0 0 0 0 0 0 0 0 0 0 0 0 0 0 0 0 0 0 0.5 0"/>
<feBlend mode="normal" in2="shape" result="effect1_innerShadow"/>
</filter>
<linearGradient id="paint0_linear" x1="471.5" y1="492" x2="1013.75" y2="-50.7038" gradientUnits="userSpaceOnUse">
<stop stop-color="#3E16BB"/>
<stop offset="1" stop-color="#BC52E3"/>
</linearGradient>
</defs>
</svg>
